#tb 0: 3521/100000
0,          0,          0,        1,    64800, 0x44a1c47c
0,          1,          1,        1,    64800, 0x649cc3a4
0,          2,          2,        1,    64800, 0xcab1b88c
0,          3,          3,        1,    64800, 0xf56cb788
0,          4,          4,        1,    64800, 0x5336b618
0,          5,          5,        1,    64800, 0x2704b438
0,          6,          6,        1,    64800, 0x04c7b8e4
0,          7,          7,        1,    64800, 0x3185b288
0,          8,          8,        1,    64800, 0xa537c410
0,          9,          9,        1,    64800, 0x6495c0f8
0,         10,         10,        1,    64800, 0x06a1ca14
0,         11,         11,        1,    64800, 0x69cdd2a0
0,         12,         12,        1,    64800, 0x4ad2d828
0,         13,         13,        1,    64800, 0x9604dea4
0,         14,         14,        1,    64800, 0x1c00e430
0,         15,         15,        1,    64800, 0x9afeefe0
0,         16,         16,        1,    64800, 0xc13fdd78
0,         17,         17,        1,    64800, 0x8438da7c
0,         18,         18,        1,    64800, 0xa0ead278
0,         19,         19,        1,    64800, 0xbeced2d8
0,         20,         20,        1,    64800, 0x85bbd7dc
0,         21,         21,        1,    64800, 0xbe59ce34
0,         22,         22,        1,    64800, 0xd76ecccc
0,         23,         23,        1,    64800, 0xe182b474
0,         24,         24,        1,    64800, 0x916cc394
0,         25,         25,        1,    64800, 0x7efebd14
0,         26,         26,        1,    64800, 0x8d28c9f0
0,         27,         27,        1,    64800, 0x00a1c960
0,         28,         28,        1,    64800, 0xc164c400
0,         29,         29,        1,    64800, 0xfd4dc544
0,         30,         30,        1,    64800, 0x01bfbe38
0,         31,         31,        1,    64800, 0xff11b5d0
0,         32,         32,        1,    64800, 0x4876bb20
0,         33,         33,        1,    64800, 0x756ecb04
0,         34,         34,        1,    64800, 0x3b8cd540
0,         35,         35,        1,    64800, 0x063ed444
